<mxfile host="app.diagrams.net" modified="2024-04-01T06:23:44.528Z" agent="Mozilla/5.0 (Windows NT 10.0; Win64; x64) AppleWebKit/537.36 (KHTML, like Gecko) Chrome/123.0.0.0 Safari/537.36" version="24.2.1" etag="o8b7PHDoB1x9v5KnYkxu" type="github">
  <diagram name="Page-1" id="VAdUB8cJ3LgjaV4Z9fID">
    <mxGraphModel>
      <root>
        <mxCell id="0" />
        <mxCell id="1" parent="0" />
      </root>
    </mxGraphModel>
  </diagram>
</mxfile>
